<svg xmlns="http://www.w3.org/2000/svg" viewBox="0 0 1200 600" preserveAspectRatio="xMidYMid slice">
  <defs>
    <linearGradient id="bg" x1="0" x2="0" y1="0" y2="1">
      <stop offset="0%" stop-color="#c4623a"/>
      <stop offset="100%" stop-color="#6e2e16"/>
    </linearGradient>
  </defs>
  <rect width="1200" height="600" fill="url(#bg)"/>
  <g stroke="white" stroke-opacity="0.35" stroke-width="3" fill="none">
    <rect x="120" y="80" width="960" height="440"/>
    <line x1="120" y1="300" x2="1080" y2="300"/>
    <line x1="600" y1="80" x2="600" y2="520"/>
    <line x1="320" y1="200" x2="880" y2="200"/>
    <line x1="320" y1="400" x2="880" y2="400"/>
    <line x1="600" y1="200" x2="600" y2="400" stroke-opacity="0.5"/>
  </g>
  <g transform="translate(300, 100) scale(1.3)">
    <g transform="translate(520,140)"><rect x="0" y="0" width="160" height="110" rx="10" fill="#1d1d1d"/><rect x="8" y="8" width="144" height="94" fill="#f0f5f1"/><line x1="20" y1="25" x2="140" y2="25" stroke="#264c31" stroke-width="3"/><line x1="20" y1="40" x2="110" y2="40" stroke="#264c31" stroke-width="2"/><line x1="20" y1="55" x2="120" y2="55" stroke="#264c31" stroke-width="2"/><line x1="20" y1="70" x2="100" y2="70" stroke="#264c31" stroke-width="2"/><line x1="20" y1="85" x2="130" y2="85" stroke="#264c31" stroke-width="2"/></g>
  </g>
  <rect x="0" y="440" width="1200" height="160" fill="#183320"/>
  <text x="60" y="510" font-family="Inter, sans-serif" font-weight="800" font-size="46" fill="white">Liga.nu</text>
  <text x="60" y="555" font-family="Inter, sans-serif" font-weight="500" font-size="22" fill="#c5b969">Tennis-Kompass · Platzhalter</text>
</svg>
